<?xml version="1.0" encoding="UTF-8" standalone="no"?>
<svg
   viewBox="0 0 46 54"
   fill="#09c"
   version="1.1"
   id="svg2"
   sodipodi:docname="munich-airport_digital-parking__charge.svg"
   inkscape:version="1.3 (0e150ed6c4, 2023-07-21)"
   xmlns:inkscape="http://www.inkscape.org/namespaces/inkscape"
   xmlns:sodipodi="http://sodipodi.sourceforge.net/DTD/sodipodi-0.dtd"
   xmlns="http://www.w3.org/2000/svg"
   xmlns:svg="http://www.w3.org/2000/svg">
  <defs
     id="defs2" />
  <sodipodi:namedview
     id="namedview2"
     pagecolor="#ffffff"
     bordercolor="#000000"
     borderopacity="0.25"
     inkscape:showpageshadow="2"
     inkscape:pageopacity="0.0"
     inkscape:pagecheckerboard="0"
     inkscape:deskcolor="#d1d1d1"
     inkscape:zoom="8.6944444"
     inkscape:cx="16.332268"
     inkscape:cy="28.00639"
     inkscape:window-width="1920"
     inkscape:window-height="1177"
     inkscape:window-x="-8"
     inkscape:window-y="-8"
     inkscape:window-maximized="1"
     inkscape:current-layer="svg2" />
  <path
     d="M8.69 41.86a3.13 3.13 0 1 0-3.48-3.1 3.32 3.32 0 0 0 3.48 3.1zm0-4.14a1 1 0 1 1-.24 2.07 1 1 0 0 1-.92-1 1.11 1.11 0 0 1 1.16-1.07zm28.97 4.14a3.13 3.13 0 1 0-3.48-3.1 3.32 3.32 0 0 0 3.48 3.1zm0-4.14a1 1 0 1 1-1.16 1 1.1 1.1 0 0 1 1.16-1z"
     fill="#24293f"
     id="path2" />
  <path
     id="path3312-4-7-0-7"
     style="fill:#24293f;fill-opacity:1;stroke-width:1.4169"
     class="pubpix-svg__map-st2"
     d="M 4.5385661,6.559597 C 2.0392541,6.559597 6.109366e-8,8.602973 6.109366e-8,11.102396 V 47.440403 H 22.722533 V 30.406022 H 27.732296 V 41.752177 C 27.732296,44.883612 30.260199,47.440403 33.420449,47.440403 36.551736,47.440403 39.108601,44.912352 39.108601,41.752177 V 24.795586 C 43.042297,23.99793 45.998324,20.520059 45.998324,16.349688 V 12.89183 C 46.041025,11.94253 45.262009,11.162883 44.312932,11.162883 H 42.583725 V 8.288544 C 42.583725,7.339207 41.818447,6.559597 40.854889,6.559597 39.90544,6.559597 39.126053,7.32506 39.126053,8.288544 V 11.162883 H 35.685461 V 8.288544 C 35.685461,7.339207 34.919813,6.559597 33.956254,6.559597 33.007177,6.559597 32.227418,7.32506 32.227418,8.288544 V 11.162883 H 30.498582 C 29.549133,11.162883 28.769746,11.94253 28.769746,12.89183 V 16.349688 C 28.769746,20.521544 31.728001,23.999564 35.663925,24.795586 V 41.782439 C 35.721107,43.046501 34.770916,44.110946 33.506965,44.168425 32.243013,44.225868 31.182913,43.275602 31.125359,42.011539 V 41.782439 31.555758 C 31.125359,29.056409 29.082021,27.017303 26.582338,27.017303 H 22.722533 V 11.102396 C 22.722533,8.602973 20.683651,6.559597 18.184339,6.559597 Z M 4.5125741,11.128313 H 18.127899 L 18.158347,22.478812 H 4.5125741 Z" />
</svg>
