<svg xmlns="http://www.w3.org/2000/svg" viewBox="0 0 46 54" fill="#09c"><path d="M40.25 0H5.75C2.59 0 0 2.33 0 5.17v37.2a4.77 4.77 0 0 0 2.36 3.88 1.1 1.1 0 0 0-.06.26v3.61a3.82 3.82 0 0 0 4 3.62h1.17a3.8 3.8 0 0 0 4-3.6v-2.6h23v2.59a3.81 3.81 0 0 0 4 3.61h1.16a3.82 3.82 0 0 0 4-3.6v-3.63A5 5 0 0 0 46 42.38V5.17C46 2.33 43.42 0 40.25 0zM9.2 50.13a1.61 1.61 0 0 1-1.68 1.55H6.33a1.62 1.62 0 0 1-1.73-1.5v-2.9a6.71 6.71 0 0 0 1.73.26H9.2zm32.2 0a1.61 1.61 0 0 1-1.67 1.55h-1.2a1.62 1.62 0 0 1-1.72-1.51v-2.63h3.45a7.34 7.34 0 0 0 1.15-.1zm2.3-7.76a3.3 3.3 0 0 1-3.45 3.11H6.33c-1.84 0-4-1.4-4-3.11v-9.3H43.7zm0-11.37H2.3V10.33h41.4zm0-22.74H2.3V5.17a3.3 3.3 0 0 1 3.45-3.1h34.5a3.28 3.28 0 0 1 3.45 3.1z" fill="#24293f"/><path d="M8.69 41.86a3.13 3.13 0 1 0-3.48-3.1 3.32 3.32 0 0 0 3.48 3.1zm0-4.14a1 1 0 1 1-.24 2.07 1 1 0 0 1-.92-1 1.11 1.11 0 0 1 1.16-1.07zm28.97 4.14a3.13 3.13 0 1 0-3.48-3.1 3.32 3.32 0 0 0 3.48 3.1zm0-4.14a1 1 0 1 1-1.16 1 1.1 1.1 0 0 1 1.16-1z" fill="#24293f"/></svg>