<svg xmlns="http://www.w3.org/2000/svg" viewBox="0 0 46 54" fill="#09c"><path d="M40.25 47.29A2.93 2.93 0 0 0 36.34 46l-1 .5-7.6-15.22v-5.46A5.54 5.54 0 0 0 31.17 27a5.66 5.66 0 0 0 4-1.66l4.44-4.45a3.13 3.13 0 0 0 .29-4.09 3.17 3.17 0 0 0-.3-.34 3.11 3.11 0 0 0-2.2-.91 3.08 3.08 0 0 0-2.2.92l-3.8 3.8-3.66-4.4v-.58a4.49 4.49 0 0 0-2.33-3.92 4.48 4.48 0 0 0 1.44-3.27V4.51a4.19 4.19 0 0 0 0-.5A3.61 3.61 0 0 0 28.65.9a.9.9 0 0 0-.9-.9h-6.3a3.6 3.6 0 0 0-3.6 3.6v4.5a4.52 4.52 0 0 0 1.34 3.2l-6.63 4.14a4.27 4.27 0 0 0-1.17 5.92 4.37 4.37 0 0 0 1.15 1.16l2.62 1.85V39.9l-7.58 3.37-3.6 1.8a.91.91 0 0 0-.4 1.21l3.11 6.2A2.68 2.68 0 0 0 9.06 54h.47a2.71 2.71 0 0 0 2.41-3.91l-1-1.94 7.69-3.23a4.49 4.49 0 0 0 2.77-4.13v-4a.81.81 0 0 1 .79-.81.79.79 0 0 1 .71.44l7.62 13.5 1.78 3.57a.91.91 0 0 0 .81.5 1 1 0 0 0 .4-.1L39 51.2a2.93 2.93 0 0 0 1.25-3.91zm-9.6-25.12a.89.89 0 0 0 1.27.12l.06-.06 4.5-4.5a1.32 1.32 0 0 1 1.87 0l.12.14a1.33 1.33 0 0 1-.12 1.74l-4.45 4.45a3.82 3.82 0 0 1-2.72 1.14A3.84 3.84 0 0 1 28 23.48l-.24-.34v-4.45zM25.05 4.5v3.6a2.71 2.71 0 0 1-2.69 2.7 2.7 2.7 0 0 1-2.69-2.7v-.53l3.05-3.07zm-5.4-.68V3.6a1.8 1.8 0 0 1 1.8-1.8h5.15a1.78 1.78 0 0 1-1.55.9h-2.7a.9.9 0 0 0-.64.26L19.65 5V3.82zm-6.79 13.8a2.59 2.59 0 0 1 .66-.66l6.63-4.14a1.3 1.3 0 0 1 .72-.22 1.35 1.35 0 0 1 1.07.55 1.32 1.32 0 0 1-.21 1.85l-5.25 3.22a.9.9 0 0 0-.3 1.24.85.85 0 0 0 .24.26l6.15 4.42a1.32 1.32 0 0 1 .57.85 1.34 1.34 0 0 1-.24 1.08 1.34 1.34 0 0 1-1.8.33l-7.56-5.35a2.48 2.48 0 0 1-.68-3.43zm7.22 10.26a3.13 3.13 0 0 0 4.26-.73l.11-.15a3.13 3.13 0 0 0 .46-2.36 3.08 3.08 0 0 0-1.32-2l-5-3.61 4.06-2.48.17-.12a3.16 3.16 0 0 0 1-3.79 2.7 2.7 0 0 1 2.16 2.65v15.3h-9v-4.93zM10.34 51.7a.92.92 0 0 1-.81.5h-.47a.9.9 0 0 1-.8-.5l-2.7-5.4 2-1 1.4 2.79 1.4 2.8a.93.93 0 0 1-.02.81zM21 34.5a2.61 2.61 0 0 0-1.38 2.3v4A2.69 2.69 0 0 1 18 43.27l-7.81 3.27-.39-.74-.63-1.27 7.24-3.21a.92.92 0 0 0 .53-.83v-8.1h9.35l7.45 14.9-2 1-7.22-12.72A2.59 2.59 0 0 0 21 34.5zm17.14 15.09l-4.59 2.3-1-2 4.6-2.3a1.11 1.11 0 0 1 1 2z" fill="#24293f"/></svg>